<?xml version="1.0" encoding="UTF-8" standalone="no"?>
<svg
   xmlns:dc="http://purl.org/dc/elements/1.1/"
   xmlns:cc="http://creativecommons.org/ns#"
   xmlns:rdf="http://www.w3.org/1999/02/22-rdf-syntax-ns#"
   xmlns:svg="http://www.w3.org/2000/svg"
   xmlns="http://www.w3.org/2000/svg"
   viewBox="0 0 370.7576 73.587997"
   height="73.587997"
   width="370.7576"
   xml:space="preserve"
   id="svg2"
   version="1.1"><metadata
     id="metadata8"><rdf:RDF><cc:Work
         rdf:about=""><dc:format>image/svg+xml</dc:format><dc:type
           rdf:resource="http://purl.org/dc/dcmitype/StillImage" /></cc:Work></rdf:RDF></metadata><defs
     id="defs6"><clipPath
       id="clipPath22"
       clipPathUnits="userSpaceOnUse"><path
         id="path20"
         d="M 0,0 H 279 V 56 H 0 Z" /></clipPath><clipPath
       id="clipPath36"
       clipPathUnits="userSpaceOnUse"><path
         id="path34"
         d="M 0,0 H 279 V 56 H 0 Z" /></clipPath><clipPath
       id="clipPath50"
       clipPathUnits="userSpaceOnUse"><path
         id="path48"
         d="M 0,0 H 279 V 56 H 0 Z" /></clipPath><clipPath
       id="clipPath64"
       clipPathUnits="userSpaceOnUse"><path
         id="path62"
         d="M 0,0 H 279 V 56 H 0 Z" /></clipPath><clipPath
       id="clipPath78"
       clipPathUnits="userSpaceOnUse"><path
         id="path76"
         d="M 0,0 H 279 V 56 H 0 Z" /></clipPath><clipPath
       id="clipPath92"
       clipPathUnits="userSpaceOnUse"><path
         id="path90"
         d="M 0,0 H 279 V 56 H 0 Z" /></clipPath><clipPath
       id="clipPath106"
       clipPathUnits="userSpaceOnUse"><path
         id="path104"
         d="M 0,0 H 279 V 56 H 0 Z" /></clipPath><clipPath
       id="clipPath120"
       clipPathUnits="userSpaceOnUse"><path
         id="path118"
         d="M 0,0 H 279 V 56 H 0 Z" /></clipPath><clipPath
       id="clipPath134"
       clipPathUnits="userSpaceOnUse"><path
         id="path132"
         d="M 0,0 H 279 V 56 H 0 Z" /></clipPath><clipPath
       id="clipPath148"
       clipPathUnits="userSpaceOnUse"><path
         id="path146"
         d="M 0,0 H 279 V 56 H 0 Z" /></clipPath><clipPath
       id="clipPath162"
       clipPathUnits="userSpaceOnUse"><path
         id="path160"
         d="M 0,0 H 279 V 56 H 0 Z" /></clipPath><clipPath
       id="clipPath176"
       clipPathUnits="userSpaceOnUse"><path
         id="path174"
         d="M 0,0 H 279 V 56 H 0 Z" /></clipPath><clipPath
       id="clipPath190"
       clipPathUnits="userSpaceOnUse"><path
         id="path188"
         d="M 0,0 H 279 V 56 H 0 Z" /></clipPath><clipPath
       id="clipPath204"
       clipPathUnits="userSpaceOnUse"><path
         id="path202"
         d="M 0,0 H 279 V 56 H 0 Z" /></clipPath><clipPath
       id="clipPath218"
       clipPathUnits="userSpaceOnUse"><path
         id="path216"
         d="M 0,0 H 279 V 56 H 0 Z" /></clipPath><clipPath
       id="clipPath232"
       clipPathUnits="userSpaceOnUse"><path
         id="path230"
         d="M 0,0 H 279 V 56 H 0 Z" /></clipPath><clipPath
       id="clipPath246"
       clipPathUnits="userSpaceOnUse"><path
         id="path244"
         d="M 0,0 H 279 V 56 H 0 Z" /></clipPath><clipPath
       id="clipPath260"
       clipPathUnits="userSpaceOnUse"><path
         id="path258"
         d="M 0,0 H 279 V 56 H 0 Z" /></clipPath><clipPath
       id="clipPath274"
       clipPathUnits="userSpaceOnUse"><path
         id="path272"
         d="M 0,0 H 279 V 56 H 0 Z" /></clipPath><clipPath
       id="clipPath288"
       clipPathUnits="userSpaceOnUse"><path
         id="path286"
         d="M 0,0 H 279 V 56 H 0 Z" /></clipPath><clipPath
       id="clipPath302"
       clipPathUnits="userSpaceOnUse"><path
         id="path300"
         d="M 0,0 H 279 V 56 H 0 Z" /></clipPath><clipPath
       id="clipPath316"
       clipPathUnits="userSpaceOnUse"><path
         id="path314"
         d="M 0,0 H 279 V 56 H 0 Z" /></clipPath><clipPath
       id="clipPath330"
       clipPathUnits="userSpaceOnUse"><path
         id="path328"
         d="M 0,0 H 279 V 56 H 0 Z" /></clipPath><clipPath
       id="clipPath344"
       clipPathUnits="userSpaceOnUse"><path
         id="path342"
         d="M 0,0 H 279 V 56 H 0 Z" /></clipPath><clipPath
       id="clipPath358"
       clipPathUnits="userSpaceOnUse"><path
         id="path356"
         d="M 0,0 H 279 V 56 H 0 Z" /></clipPath><clipPath
       id="clipPath372"
       clipPathUnits="userSpaceOnUse"><path
         id="path370"
         d="M 0,0 H 279 V 56 H 0 Z" /></clipPath><clipPath
       id="clipPath386"
       clipPathUnits="userSpaceOnUse"><path
         id="path384"
         d="M 0,0 H 279 V 56 H 0 Z" /></clipPath><clipPath
       id="clipPath400"
       clipPathUnits="userSpaceOnUse"><path
         id="path398"
         d="M 0,0 H 279 V 56 H 0 Z" /></clipPath><clipPath
       id="clipPath414"
       clipPathUnits="userSpaceOnUse"><path
         id="path412"
         d="M 0,0 H 279 V 56 H 0 Z" /></clipPath><clipPath
       id="clipPath428"
       clipPathUnits="userSpaceOnUse"><path
         id="path426"
         d="M 0,0 H 279 V 56 H 0 Z" /></clipPath><clipPath
       id="clipPath442"
       clipPathUnits="userSpaceOnUse"><path
         id="path440"
         d="M 0,0 H 279 V 56 H 0 Z" /></clipPath><clipPath
       id="clipPath456"
       clipPathUnits="userSpaceOnUse"><path
         id="path454"
         d="M 0,0 H 279 V 56 H 0 Z" /></clipPath><clipPath
       id="clipPath470"
       clipPathUnits="userSpaceOnUse"><path
         id="path468"
         d="M 0,0 H 279 V 56 H 0 Z" /></clipPath><clipPath
       id="clipPath484"
       clipPathUnits="userSpaceOnUse"><path
         id="path482"
         d="M 0,0 H 279 V 56 H 0 Z" /></clipPath><clipPath
       id="clipPath498"
       clipPathUnits="userSpaceOnUse"><path
         id="path496"
         d="M 0,0 H 279 V 56 H 0 Z" /></clipPath><clipPath
       id="clipPath512"
       clipPathUnits="userSpaceOnUse"><path
         id="path510"
         d="M 0,0 H 279 V 56 H 0 Z" /></clipPath><clipPath
       id="clipPath526"
       clipPathUnits="userSpaceOnUse"><path
         id="path524"
         d="M 0,0 H 279 V 56 H 0 Z" /></clipPath><clipPath
       id="clipPath540"
       clipPathUnits="userSpaceOnUse"><path
         id="path538"
         d="M 0,0 H 279 V 56 H 0 Z" /></clipPath><clipPath
       id="clipPath554"
       clipPathUnits="userSpaceOnUse"><path
         id="path552"
         d="M 0,0 H 279 V 56 H 0 Z" /></clipPath><clipPath
       id="clipPath568"
       clipPathUnits="userSpaceOnUse"><path
         id="path566"
         d="M 0,0 H 279 V 56 H 0 Z" /></clipPath><clipPath
       id="clipPath582"
       clipPathUnits="userSpaceOnUse"><path
         id="path580"
         d="M 0,0 H 279 V 56 H 0 Z" /></clipPath><clipPath
       id="clipPath596"
       clipPathUnits="userSpaceOnUse"><path
         id="path594"
         d="M 0,0 H 279 V 56 H 0 Z" /></clipPath><clipPath
       id="clipPath610"
       clipPathUnits="userSpaceOnUse"><path
         id="path608"
         d="M 0,0 H 279 V 56 H 0 Z" /></clipPath><clipPath
       id="clipPath624"
       clipPathUnits="userSpaceOnUse"><path
         id="path622"
         d="M 0,0 H 279 V 56 H 0 Z" /></clipPath><clipPath
       id="clipPath638"
       clipPathUnits="userSpaceOnUse"><path
         id="path636"
         d="M 0,0 H 279 V 56 H 0 Z" /></clipPath><clipPath
       id="clipPath652"
       clipPathUnits="userSpaceOnUse"><path
         id="path650"
         d="M 0,0 H 279 V 56 H 0 Z" /></clipPath><clipPath
       id="clipPath666"
       clipPathUnits="userSpaceOnUse"><path
         id="path664"
         d="M 0,0 H 279 V 56 H 0 Z" /></clipPath><clipPath
       id="clipPath680"
       clipPathUnits="userSpaceOnUse"><path
         id="path678"
         d="M 0,0 H 279 V 56 H 0 Z" /></clipPath><clipPath
       id="clipPath694"
       clipPathUnits="userSpaceOnUse"><path
         id="path692"
         d="M 0,0 H 279 V 56 H 0 Z" /></clipPath><clipPath
       id="clipPath708"
       clipPathUnits="userSpaceOnUse"><path
         id="path706"
         d="M 0,0 H 279 V 56 H 0 Z" /></clipPath><clipPath
       id="clipPath722"
       clipPathUnits="userSpaceOnUse"><path
         id="path720"
         d="M 0,0 H 279 V 56 H 0 Z" /></clipPath><clipPath
       id="clipPath736"
       clipPathUnits="userSpaceOnUse"><path
         id="path734"
         d="M 0,0 H 279 V 56 H 0 Z" /></clipPath><clipPath
       id="clipPath750"
       clipPathUnits="userSpaceOnUse"><path
         id="path748"
         d="M 0,0 H 279 V 56 H 0 Z" /></clipPath><clipPath
       id="clipPath764"
       clipPathUnits="userSpaceOnUse"><path
         id="path762"
         d="M 0,0 H 279 V 56 H 0 Z" /></clipPath><clipPath
       id="clipPath778"
       clipPathUnits="userSpaceOnUse"><path
         id="path776"
         d="M 0,0 H 279 V 56 H 0 Z" /></clipPath><clipPath
       id="clipPath792"
       clipPathUnits="userSpaceOnUse"><path
         id="path790"
         d="M 0,0 H 279 V 56 H 0 Z" /></clipPath><clipPath
       id="clipPath806"
       clipPathUnits="userSpaceOnUse"><path
         id="path804"
         d="M 0,0 H 279 V 56 H 0 Z" /></clipPath><clipPath
       id="clipPath820"
       clipPathUnits="userSpaceOnUse"><path
         id="path818"
         d="M 0,0 H 279 V 56 H 0 Z" /></clipPath><clipPath
       id="clipPath834"
       clipPathUnits="userSpaceOnUse"><path
         id="path832"
         d="M 0,0 H 279 V 56 H 0 Z" /></clipPath><clipPath
       id="clipPath848"
       clipPathUnits="userSpaceOnUse"><path
         id="path846"
         d="M 0,0 H 279 V 56 H 0 Z" /></clipPath><clipPath
       id="clipPath862"
       clipPathUnits="userSpaceOnUse"><path
         id="path860"
         d="M 0,0 H 279 V 56 H 0 Z" /></clipPath><clipPath
       id="clipPath876"
       clipPathUnits="userSpaceOnUse"><path
         id="path874"
         d="M 0,0 H 279 V 56 H 0 Z" /></clipPath><clipPath
       id="clipPath890"
       clipPathUnits="userSpaceOnUse"><path
         id="path888"
         d="M 0,0 H 279 V 56 H 0 Z" /></clipPath><clipPath
       id="clipPath904"
       clipPathUnits="userSpaceOnUse"><path
         id="path902"
         d="M 0,0 H 279 V 56 H 0 Z" /></clipPath><clipPath
       id="clipPath918"
       clipPathUnits="userSpaceOnUse"><path
         id="path916"
         d="M 0,0 H 279 V 56 H 0 Z" /></clipPath><clipPath
       id="clipPath932"
       clipPathUnits="userSpaceOnUse"><path
         id="path930"
         d="M 0,0 H 279 V 56 H 0 Z" /></clipPath><clipPath
       id="clipPath946"
       clipPathUnits="userSpaceOnUse"><path
         id="path944"
         d="M 0,0 H 279 V 56 H 0 Z" /></clipPath><clipPath
       id="clipPath960"
       clipPathUnits="userSpaceOnUse"><path
         id="path958"
         d="M 0,0 H 279 V 56 H 0 Z" /></clipPath><clipPath
       id="clipPath974"
       clipPathUnits="userSpaceOnUse"><path
         id="path972"
         d="M 0,0 H 279 V 56 H 0 Z" /></clipPath></defs><g
     transform="matrix(1.3333333,0,0,1.3333333,0,1.5063666e-6)"
     id="g10"><g
       id="g12"><g
         id="g14"><g
           id="g16"><g
             clip-path="url(#clipPath22)"
             id="g18"><g
               id="g24"><path
                 id="path26"
                 style="fill:#1f4e86;fill-opacity:1;fill-rule:nonzero;stroke:none"
                 d="m 27.594,47.047 c -10.727,0 -19.449,-8.727 -19.449,-19.449 0,-10.727 8.722,-19.453 19.449,-19.453 10.726,0 19.453,8.726 19.453,19.453 0,10.722 -8.727,19.449 -19.453,19.449 m 20.09,-19.449 c 0,-11.078 -9.012,-20.09 -20.09,-20.09 -11.074,0 -20.086,9.012 -20.086,20.09 0,11.074 9.012,20.086 20.086,20.086 11.078,0 20.09,-9.012 20.09,-20.086" /></g></g></g></g><g
         id="g28"><g
           id="g30"><g
             clip-path="url(#clipPath36)"
             id="g32"><g
               id="g38"><path
                 id="path40"
                 style="fill:#1f4e86;fill-opacity:1;fill-rule:nonzero;stroke:none"
                 d="m 27.594,54.438 c -14.797,0 -26.84,-12.043 -26.84,-26.84 0,-14.801 12.043,-26.844 26.84,-26.844 14.801,0 26.844,12.043 26.844,26.844 0,14.797 -12.043,26.84 -26.844,26.84 M 27.594,0 C 12.379,0 0,12.379 0,27.598 0,42.812 12.379,55.191 27.594,55.191 42.812,55.191 55.191,42.812 55.191,27.598 55.191,12.379 42.812,0 27.594,0" /></g></g></g></g><g
         id="g42"><g
           id="g44"><g
             clip-path="url(#clipPath50)"
             id="g46"><g
               id="g52"><path
                 id="path54"
                 style="fill:#1f4e86;fill-opacity:1;fill-rule:nonzero;stroke:none"
                 d="m 8.02,15.215 c 0.601,0 1.089,-0.488 1.089,-1.09 0,-0.602 -0.488,-1.09 -1.089,-1.09 -0.602,0 -1.086,0.488 -1.086,1.09 0,0.602 0.484,1.09 1.086,1.09" /></g></g></g></g><g
         id="g56"><g
           id="g58"><g
             clip-path="url(#clipPath64)"
             id="g60"><g
               id="g66"><path
                 id="path68"
                 style="fill:#1f4e86;fill-opacity:1;fill-rule:nonzero;stroke:none"
                 d="m 45.871,14.051 c 0,0.601 0.488,1.09 1.09,1.09 0.601,0 1.09,-0.489 1.09,-1.09 0,-0.602 -0.489,-1.09 -1.09,-1.09 -0.602,0 -1.09,0.488 -1.09,1.09" /></g></g></g></g><g
         id="g70"><g
           id="g72"><g
             clip-path="url(#clipPath78)"
             id="g74"><g
               id="g80"><path
                 id="path82"
                 style="fill:#1f4e86;fill-opacity:1;fill-rule:nonzero;stroke:none"
                 d="m 35.641,44.094 v -7.961 h 8.23 c -1.832,3.316 -4.375,5.988 -8.23,7.961 M 19.57,44.133 c -3.816,-1.914 -6.523,-4.676 -8.324,-8 H 19.57 Z M 19.523,18.82 h -8.046 c 1.835,-3.238 4.339,-5.84 8.046,-7.703 z m 16.118,-7.789 c 3.382,1.645 6.199,4.485 8.089,7.785 h -8.089 z m 5.05,24.352 C 40.43,34.984 39.059,34.359 36.676,34.492 l -7.02,-6.984 7.02,-6.981 c 2.531,0.137 3.918,-0.57 4.047,-0.961 h 3.812 l -0.18,-0.355 c -1.992,-3.949 -5.23,-7.07 -9.121,-8.785 l -0.343,-0.153 v 9.278 l -7.321,6.887 -7.25,-6.883 v -9.258 l -0.347,0.152 c -3.996,1.778 -7.258,4.891 -9.184,8.762 l -0.176,0.355 h 3.875 c 0.129,0.391 1.516,1.098 4.043,0.961 l 7.024,6.981 -7.024,6.984 c -2.383,-0.133 -3.754,0.492 -4.015,0.891 h -4.051 l 0.164,0.347 c 1.875,3.965 5.195,7.165 9.344,9.012 l 0.347,0.153 v -9.43 l 7.25,-6.809 7.321,6.813 v 9.39 l 0.347,-0.152 c 4.051,-1.828 7.336,-5.016 9.254,-8.973 l 0.168,-0.351 z" /></g></g></g></g><g
         id="g84"><g
           id="g86"><g
             clip-path="url(#clipPath92)"
             id="g88"><g
               id="g94"><path
                 id="path96"
                 style="fill:#1f4e86;fill-opacity:1;fill-rule:nonzero;stroke:none"
                 d="m 26.883,14.559 h -0.649 l -0.015,0.129 c -0.071,0.589 -0.254,1.031 -0.543,1.316 -0.293,0.285 -0.656,0.426 -1.121,0.426 h -0.723 c -0.133,0 -0.234,-0.024 -0.293,-0.063 -0.019,-0.015 -0.023,-0.058 -0.023,-0.082 V 14.25 h 0.086 c 0.32,0 0.558,0.078 0.707,0.234 0.156,0.161 0.242,0.454 0.265,0.868 l 0.008,0.136 h 0.652 v -3.027 h -0.648 l -0.012,0.133 c -0.027,0.363 -0.121,0.629 -0.273,0.781 -0.153,0.152 -0.363,0.227 -0.649,0.227 h -0.136 v -1.899 c 0,-0.055 0.019,-0.078 0.035,-0.09 0.011,-0.011 0.058,-0.039 0.183,-0.039 h 0.821 c 0.308,0 0.558,0.047 0.742,0.141 0.18,0.094 0.324,0.234 0.437,0.426 0.118,0.199 0.219,0.535 0.297,1 l 0.024,0.121 h 0.636 L 26.555,10.91 h -5.539 v 0.664 h 0.625 c 0.187,0 0.246,0.031 0.257,0.039 0.012,0.008 0.036,0.024 0.036,0.09 v 4.531 c 0,0.086 -0.028,0.121 -0.051,0.145 -0.035,0.031 -0.094,0.051 -0.18,0.051 h -0.687 v 0.66 h 5.765 z" /></g></g></g></g><g
         id="g98"><g
           id="g100"><g
             clip-path="url(#clipPath106)"
             id="g102"><g
               id="g108"><path
                 id="path110"
                 style="fill:#1f4e86;fill-opacity:1;fill-rule:nonzero;stroke:none"
                 d="m 30.184,16.453 h -0.25 c -0.227,0 -0.407,-0.07 -0.559,-0.211 -0.145,-0.14 -0.219,-0.379 -0.219,-0.707 v -2.824 l 3.598,4.406 h 0.695 v -4.762 c 0,-0.25 0.055,-0.437 0.164,-0.558 0.114,-0.117 0.309,-0.195 0.586,-0.223 l 0.129,-0.015 v -0.645 h -2.547 v 0.652 l 0.137,0.008 c 0.266,0.016 0.457,0.094 0.598,0.231 0.132,0.136 0.199,0.32 0.199,0.55 v 2.352 l -3.137,-3.793 h -2.129 v 0.66 h 0.422 c 0.227,0 0.414,0.086 0.567,0.258 v 3.77 c 0,0.257 -0.071,0.46 -0.211,0.621 -0.141,0.156 -0.309,0.23 -0.512,0.23 h -0.317 v 0.664 h 2.786 z" /></g></g></g></g><g
         id="g112"><g
           id="g114"><g
             clip-path="url(#clipPath120)"
             id="g116"><g
               id="g122"><path
                 id="path124"
                 style="fill:#1f4e86;fill-opacity:1;fill-rule:nonzero;stroke:none"
                 d="m 27.844,19.305 c 0,-0.02 0,-0.02 0.011,-0.024 0.008,-0.004 0.083,-0.031 0.399,-0.031 0.484,0 0.711,0.07 0.812,0.125 0.192,0.113 0.282,0.301 0.282,0.582 0,0.262 -0.047,0.387 -0.086,0.441 -0.063,0.09 -0.172,0.164 -0.328,0.231 -0.164,0.066 -0.356,0.101 -0.567,0.101 h -0.523 z m 0.855,1.968 c 0.324,0 0.656,-0.043 0.985,-0.125 0.339,-0.089 0.617,-0.234 0.824,-0.429 0.219,-0.211 0.328,-0.457 0.328,-0.739 0,-0.367 -0.188,-0.679 -0.555,-0.925 C 29.93,18.82 29.469,18.703 28.906,18.703 H 25.59 v 0.547 h 0.664 c 0.051,0 0.09,0.012 0.121,0.035 0.016,0.012 0.023,0.024 0.023,0.051 v 3.133 c 0,0.035 -0.011,0.047 -0.023,0.058 -0.02,0.012 -0.059,0.032 -0.156,0.032 H 25.59 v 0.55 h 3.176 v -0.55 h -0.77 c -0.055,0 -0.101,-0.012 -0.129,-0.036 -0.015,-0.007 -0.023,-0.019 -0.023,-0.054 v -1.196 z" /></g></g></g></g><g
         id="g126"><g
           id="g128"><g
             clip-path="url(#clipPath134)"
             id="g130"><g
               id="g136"><path
                 id="path138"
                 style="fill:#1f4e86;fill-opacity:1;fill-rule:nonzero;stroke:none"
                 d="m 26.871,35.449 c -0.012,0.008 -0.074,0.035 -0.25,0.035 h -0.59 v 0.551 h 3.196 v -0.551 h -0.614 c -0.129,0 -0.195,-0.023 -0.226,-0.039 0,-0.004 -0.008,-0.007 -0.008,-0.035 l 0.012,-3.207 c 0.004,-0.004 0.043,-0.027 0.164,-0.027 h 0.672 v -0.547 h -3.196 v 0.547 h 0.653 c 0.128,0 0.175,0.023 0.191,0.035 0.008,0.004 0.02,0.012 0.02,0.047 v 3.152 c 0,0.02 -0.004,0.028 -0.024,0.039" /></g></g></g></g><g
         id="g140"><g
           id="g142"><g
             clip-path="url(#clipPath148)"
             id="g144"><g
               id="g150"><path
                 id="path152"
                 style="fill:#1f4e86;fill-opacity:1;fill-rule:nonzero;stroke:none"
                 d="m 16.73,25.176 c 0.051,-0.031 0.161,-0.067 0.387,-0.067 0.344,0 0.66,0.063 0.945,0.184 0.282,0.121 0.536,0.328 0.758,0.617 0.223,0.293 0.41,0.711 0.555,1.242 l 0.027,0.11 h 0.907 L 20.055,24.383 H 10.75 l -0.246,2.879 h 0.883 l 0.027,-0.106 c 0.402,-1.375 1.148,-2.047 2.274,-2.047 0.234,0 0.343,0.039 0.398,0.071 0.055,0.031 0.078,0.074 0.078,0.144 v 5.242 c 0,0.039 -0.012,0.082 -0.082,0.129 -0.07,0.047 -0.18,0.071 -0.316,0.071 H 12.5 v 0.718 h 5.82 V 30.766 H 17 c -0.105,0 -0.195,-0.024 -0.266,-0.071 -0.07,-0.047 -0.078,-0.093 -0.078,-0.129 v -5.269 c 0,-0.047 0.012,-0.086 0.074,-0.121" /></g></g></g></g><g
         id="g154"><g
           id="g156"><g
             clip-path="url(#clipPath162)"
             id="g158"><g
               id="g164"><path
                 id="path166"
                 style="fill:#1f4e86;fill-opacity:1;fill-rule:nonzero;stroke:none"
                 d="m 23.082,38.363 h 0.871 l 2.461,2.207 -2.469,2.524 h -0.863 v 1.117 h 8.856 v -2.438 h -1.063 v 0.145 c 0,0.594 -0.129,0.723 -0.539,1.039 -0.02,0.016 -0.371,0.258 -0.938,0.258 h -2.753 l 2.121,-2.391 V 40.277 L 26.84,38.363 h 3.195 c 0.281,0 0.496,0.082 0.633,0.242 0.266,0.297 0.207,0.786 0.207,0.79 l -0.02,0.164 h 1.083 v -2.711 h -8.856 z" /></g></g></g></g><g
         id="g168"><g
           id="g170"><g
             clip-path="url(#clipPath176)"
             id="g172"><g
               id="g178"><path
                 id="path180"
                 style="fill:#1f4e86;fill-opacity:1;fill-rule:nonzero;stroke:none"
                 d="m 44.883,28.633 v 0.219 c 0,0.406 -0.324,0.73 -0.969,0.957 -0.324,0.113 -1.262,0.05 -1.73,0.003 v -0.355 c 1.144,-0.082 3.031,-1.09 3.031,-2.695 0,-1.438 -0.527,-2.059 -1.098,-2.516 -1.187,-0.949 -2.812,-0.941 -3.679,-0.937 h -0.196 c -0.871,-0.004 -2.492,-0.012 -3.68,0.937 -0.57,0.457 -1.097,1.078 -1.097,2.516 0,1.605 1.887,2.613 3.027,2.695 v 0.355 c -0.465,0.047 -1.402,0.11 -1.73,-0.003 -0.641,-0.231 -0.969,-0.551 -0.969,-0.957 v -0.219 l -0.824,0.359 0.636,2.391 h 4.5 V 28.688 L 40,28.656 c -0.016,-0.004 -1.684,-0.492 -1.684,-1.679 0,-1.168 0.606,-1.672 2.024,-1.68 1.414,0.008 2.019,0.512 2.019,1.68 0,1.187 -1.664,1.675 -1.683,1.679 l -0.106,0.032 v 2.695 h 4.504 l 0.633,-2.391 z" /></g></g></g></g><g
         id="g182"><g
           id="g184"><g
             clip-path="url(#clipPath190)"
             id="g186"><g
               id="g192"><path
                 id="path194"
                 style="fill:#1f4e86;fill-opacity:1;fill-rule:nonzero;stroke:none"
                 d="m 10.398,9.016 c 0.075,-0.067 0.145,-0.098 0.207,-0.098 0.063,0 0.125,0.035 0.184,0.102 l 2.328,2.703 c 0.055,0.062 0.074,0.125 0.063,0.187 -0.012,0.067 -0.063,0.141 -0.16,0.223 l -0.274,0.238 0.192,0.223 1.8,-1.555 -0.07,-0.078 1.562,-0.945 -0.148,-0.25 -0.07,0.043 C 15.844,9.91 15.668,9.938 15.484,9.891 15.305,9.848 15.137,9.699 14.984,9.449 L 13.672,7.27 18.02,8.938 18.332,8.75 16.449,5.637 C 16.332,5.441 16.289,5.266 16.312,5.113 16.344,4.961 16.449,4.812 16.641,4.668 l -0.153,-0.25 -1.449,0.875 0.149,0.25 c 0.199,-0.102 0.386,-0.129 0.558,-0.082 0.168,0.051 0.309,0.164 0.422,0.348 l 1.121,1.859 -3.805,-1.438 -1.23,0.743 0.148,0.254 0.18,-0.11 c 0.184,-0.109 0.387,-0.125 0.602,-0.035 l 1.554,2.574 c 0.121,0.199 0.164,0.391 0.133,0.582 -0.031,0.192 -0.125,0.336 -0.285,0.43 l -0.109,0.066 0.058,0.094 -0.277,0.238 c -0.082,0.071 -0.16,0.106 -0.231,0.11 -0.058,0 -0.113,-0.031 -0.168,-0.094 L 11.504,8.348 C 11.457,8.297 11.438,8.242 11.445,8.184 11.453,8.129 11.492,8.074 11.559,8.012 l 0.328,-0.282 -0.192,-0.218 -1.8,1.55 0.191,0.223 z" /></g></g></g></g><g
         id="g196"><g
           id="g198"><g
             clip-path="url(#clipPath204)"
             id="g200"><g
               id="g206"><path
                 id="path208"
                 style="fill:#1f4e86;fill-opacity:1;fill-rule:nonzero;stroke:none"
                 d="m 20.871,7.129 c 0.531,0.328 1.106,0.414 1.719,0.254 0.476,-0.125 0.836,-0.379 1.086,-0.766 0.246,-0.383 0.336,-0.84 0.265,-1.371 l -0.273,0.07 C 23.699,5.738 23.645,6.074 23.512,6.328 23.324,6.68 23.039,6.906 22.656,7.004 22.273,7.105 21.949,7.039 21.68,6.809 21.34,6.512 21.074,5.992 20.879,5.254 20.695,4.551 20.676,4.008 20.812,3.625 c 0.137,-0.383 0.376,-0.617 0.715,-0.707 0.313,-0.082 0.621,-0.027 0.926,0.164 0.309,0.188 0.57,0.531 0.793,1.027 L 23.527,4.039 22.98,2.25 22.754,2.309 22.66,2.812 C 22.406,2.699 22.176,2.637 21.973,2.613 c -0.203,-0.019 -0.411,0 -0.629,0.059 -0.547,0.14 -0.977,0.457 -1.285,0.949 -0.364,0.574 -0.446,1.242 -0.247,1.996 0.176,0.684 0.532,1.188 1.059,1.512" /></g></g></g></g><g
         id="g210"><g
           id="g212"><g
             clip-path="url(#clipPath218)"
             id="g214"><g
               id="g220"><path
                 id="path222"
                 style="fill:#1f4e86;fill-opacity:1;fill-rule:nonzero;stroke:none"
                 d="m 24.691,2.383 c 0.106,-0.004 0.184,0.015 0.235,0.058 0.051,0.043 0.074,0.121 0.078,0.231 l 0.109,3.512 c 0.004,0.093 -0.011,0.16 -0.047,0.203 -0.035,0.039 -0.093,0.062 -0.171,0.066 L 24.547,6.461 24.559,6.754 26.707,6.688 26.695,6.395 26.324,6.406 C 26.258,6.41 26.207,6.391 26.168,6.348 26.129,6.309 26.109,6.242 26.105,6.152 L 26.055,4.477 27.82,4.422 27.875,6.098 C 27.879,6.191 27.859,6.258 27.82,6.301 27.785,6.34 27.723,6.363 27.633,6.367 L 27.305,6.375 27.312,6.668 29.465,6.602 29.457,6.309 29.133,6.32 C 29.047,6.32 28.98,6.301 28.934,6.254 28.883,6.207 28.859,6.133 28.855,6.031 L 28.746,2.512 C 28.742,2.426 28.762,2.359 28.809,2.316 28.852,2.273 28.93,2.25 29.043,2.246 L 29.328,2.234 29.32,1.941 27.168,2.012 27.18,2.305 27.449,2.293 c 0.11,0 0.188,0.019 0.239,0.062 0.046,0.04 0.074,0.118 0.078,0.231 L 27.809,4.035 26.043,4.09 25.992,2.562 c 0,-0.07 0.02,-0.124 0.063,-0.164 0.043,-0.043 0.109,-0.062 0.199,-0.066 L 26.57,2.32 26.562,2.027 24.414,2.098 24.422,2.391 Z" /></g></g></g></g><g
         id="g224"><g
           id="g226"><g
             clip-path="url(#clipPath232)"
             id="g228"><g
               id="g234"><path
                 id="path236"
                 style="fill:#1f4e86;fill-opacity:1;fill-rule:nonzero;stroke:none"
                 d="m 32.027,3.023 c 0.028,-0.144 0.071,-0.234 0.129,-0.269 0.055,-0.031 0.184,-0.027 0.375,0.012 0.36,0.07 0.598,0.187 0.719,0.351 0.117,0.164 0.148,0.391 0.09,0.684 C 33.277,4.117 33.156,4.332 32.984,4.434 32.75,4.57 32.465,4.605 32.125,4.539 L 31.742,4.461 Z M 31.992,6.809 31.582,6.727 C 31.5,6.711 31.434,6.672 31.379,6.605 31.344,6.559 31.336,6.5 31.352,6.422 l 0.332,-1.684 0.336,0.067 c 0.14,0.031 0.253,0.086 0.339,0.168 0.082,0.082 0.141,0.195 0.176,0.339 0.035,0.145 0.051,0.415 0.051,0.813 0,0.344 0.012,0.563 0.031,0.656 0.031,0.168 0.098,0.301 0.199,0.407 0.102,0.105 0.25,0.175 0.446,0.214 0.273,0.055 0.5,0.012 0.683,-0.125 0.184,-0.136 0.325,-0.394 0.418,-0.773 L 34.094,6.453 C 33.996,6.805 33.879,6.973 33.742,6.945 33.691,6.934 33.652,6.898 33.625,6.84 33.598,6.781 33.578,6.648 33.566,6.438 33.543,6.109 33.492,5.82 33.406,5.574 33.34,5.383 33.254,5.234 33.145,5.121 33.031,5.012 32.859,4.914 32.629,4.824 33.113,4.871 33.484,4.84 33.746,4.727 34.086,4.578 34.289,4.336 34.355,4 34.398,3.789 34.375,3.586 34.289,3.391 34.207,3.195 34.051,3.023 33.828,2.875 33.605,2.727 33.301,2.613 32.914,2.539 L 30.539,2.066 30.484,2.355 30.871,2.43 c 0.078,0.015 0.137,0.05 0.172,0.105 0.031,0.051 0.039,0.125 0.023,0.219 L 30.379,6.203 C 30.363,6.289 30.328,6.352 30.27,6.391 30.211,6.43 30.137,6.441 30.047,6.422 l -0.359,-0.07 -0.055,0.289 2.305,0.457 z" /></g></g></g></g><g
         id="g238"><g
           id="g240"><g
             clip-path="url(#clipPath246)"
             id="g242"><g
               id="g248"><path
                 id="path250"
                 style="fill:#1f4e86;fill-opacity:1;fill-rule:nonzero;stroke:none"
                 d="M 34.113,7.629 36.336,8.477 36.441,8.199 36.082,8.066 C 35.984,8.027 35.914,7.977 35.879,7.914 c -0.031,-0.051 -0.031,-0.113 0,-0.191 l 1.285,-3.371 c 0.027,-0.071 0.066,-0.114 0.117,-0.133 0.055,-0.02 0.121,-0.012 0.207,0.023 l 0.403,0.153 0.105,-0.274 -2.223,-0.848 -0.105,0.274 0.387,0.144 c 0.093,0.039 0.156,0.082 0.183,0.141 0.032,0.055 0.032,0.125 0,0.207 L 34.965,7.371 C 34.938,7.449 34.891,7.5 34.828,7.52 34.766,7.539 34.676,7.527 34.559,7.484 L 34.215,7.355 Z" /></g></g></g></g><g
         id="g252"><g
           id="g254"><g
             clip-path="url(#clipPath260)"
             id="g256"><g
               id="g262"><path
                 id="path264"
                 style="fill:#1f4e86;fill-opacity:1;fill-rule:nonzero;stroke:none"
                 d="m 38.117,6.828 c 0.129,0.215 0.391,0.496 0.781,0.844 0.293,0.258 0.473,0.426 0.536,0.504 0.121,0.148 0.187,0.289 0.207,0.429 C 39.66,8.742 39.629,8.887 39.547,9.031 39.43,9.238 39.25,9.363 39.008,9.41 38.762,9.453 38.492,9.391 38.195,9.227 37.465,8.816 37.219,8.113 37.461,7.121 l -0.242,-0.137 -0.844,1.508 0.203,0.113 0.547,-0.222 c 0.184,0.492 0.484,0.855 0.906,1.09 0.461,0.257 0.918,0.336 1.379,0.242 C 39.793,9.637 40.09,9.41 40.301,9.031 40.441,8.781 40.5,8.535 40.48,8.293 40.461,8.051 40.359,7.812 40.18,7.57 40.07,7.422 39.84,7.195 39.492,6.895 39.195,6.637 39,6.438 38.902,6.297 38.805,6.16 38.75,6.027 38.742,5.902 38.734,5.773 38.762,5.656 38.82,5.547 c 0.106,-0.184 0.27,-0.301 0.496,-0.348 0.227,-0.047 0.461,-0.004 0.707,0.133 0.282,0.16 0.485,0.406 0.61,0.738 0.121,0.332 0.133,0.739 0.035,1.211 L 40.914,7.418 41.68,6 41.484,5.891 41.027,6.113 C 40.848,5.648 40.559,5.305 40.16,5.082 39.746,4.848 39.348,4.781 38.969,4.875 38.59,4.969 38.301,5.203 38.09,5.574 c -0.121,0.219 -0.18,0.43 -0.176,0.633 0.004,0.203 0.07,0.41 0.203,0.621" /></g></g></g></g><g
         id="g266"><g
           id="g268"><g
             clip-path="url(#clipPath274)"
             id="g270"><g
               id="g276"><path
                 id="path278"
                 style="fill:#1f4e86;fill-opacity:1;fill-rule:nonzero;stroke:none"
                 d="m 41.719,8.207 c 0.773,-0.629 1.367,-0.773 1.773,-0.434 0.074,0.063 0.117,0.122 0.125,0.184 0.012,0.059 -0.012,0.121 -0.066,0.184 l -2.301,2.754 c -0.047,0.054 -0.098,0.082 -0.16,0.085 -0.063,0.008 -0.121,-0.015 -0.18,-0.062 l -0.383,-0.32 -0.187,0.222 1.902,1.594 0.188,-0.226 -0.403,-0.34 c -0.047,-0.039 -0.074,-0.086 -0.078,-0.149 -0.004,-0.062 0.016,-0.117 0.059,-0.172 L 44.32,8.762 c 0.047,-0.059 0.102,-0.086 0.16,-0.09 0.059,0 0.125,0.031 0.196,0.09 0.125,0.105 0.211,0.234 0.262,0.39 0.046,0.157 0.042,0.352 -0.012,0.582 -0.055,0.231 -0.176,0.516 -0.367,0.848 l 0.218,0.184 1.055,-1.426 -3.113,-2.602 -1.211,1.293 z" /></g></g></g></g><g
         id="g280"><g
           id="g282"><g
             clip-path="url(#clipPath288)"
             id="g284"><g
               id="g290"><path
                 id="path292"
                 style="fill:#1f4e86;fill-opacity:1;fill-rule:nonzero;stroke:none"
                 d="M 2.711,21.816 C 2.75,21.703 2.809,21.613 2.883,21.543 2.961,21.477 3.066,21.426 3.207,21.387 l 2.484,-0.692 0.649,1.317 c 0.078,0.16 0.125,0.32 0.14,0.48 0.02,0.16 0.008,0.301 -0.031,0.414 L 6.402,23.039 6.609,23.113 7.211,21.391 7.004,21.32 6.965,21.438 C 6.914,21.578 6.855,21.672 6.797,21.723 6.73,21.77 6.668,21.781 6.605,21.758 6.52,21.73 6.445,21.652 6.383,21.527 l -1.09,-2.152 1.895,0.664 c 0.07,0.023 0.117,0.066 0.144,0.129 0.027,0.062 0.027,0.137 -0.004,0.223 l -0.14,0.41 0.207,0.074 L 8.062,18.957 7.855,18.883 7.75,19.195 C 7.707,19.316 7.656,19.398 7.602,19.434 7.551,19.473 7.492,19.48 7.426,19.457 L 4.164,18.316 C 4.102,18.293 4.062,18.254 4.039,18.195 4.02,18.137 4.023,18.062 4.055,17.969 l 0.129,-0.371 -0.207,-0.071 -0.668,1.914 0.207,0.075 0.14,-0.411 C 3.688,19.023 3.734,18.961 3.801,18.914 3.84,18.887 3.895,18.883 3.957,18.906 l 1.004,0.352 0.457,0.898 -2.063,0.578 C 3.312,20.746 3.273,20.742 3.242,20.73 3.203,20.719 3.18,20.68 3.172,20.617 3.164,20.559 3.188,20.449 3.242,20.293 l 0.074,-0.215 -0.207,-0.074 -0.66,1.891 0.207,0.074 z" /></g></g></g></g><g
         id="g294"><g
           id="g296"><g
             clip-path="url(#clipPath302)"
             id="g298"><g
               id="g304"><path
                 id="path306"
                 style="fill:#1f4e86;fill-opacity:1;fill-rule:nonzero;stroke:none"
                 d="m 2.754,23.863 c 0.324,-0.211 0.867,-0.273 1.641,-0.179 0.707,0.082 1.203,0.261 1.492,0.539 0.281,0.277 0.402,0.613 0.359,1 C 6.215,25.465 6.121,25.68 5.957,25.863 5.793,26.047 5.562,26.172 5.258,26.246 4.957,26.32 4.547,26.324 4.031,26.266 3.559,26.211 3.184,26.109 2.906,25.957 2.629,25.809 2.438,25.633 2.324,25.422 2.215,25.215 2.172,24.984 2.203,24.727 2.246,24.363 2.43,24.074 2.754,23.863 m 0.105,2.746 c 0.325,0.227 0.7,0.364 1.129,0.414 0.426,0.051 0.824,0.004 1.188,-0.14 0.363,-0.145 0.66,-0.367 0.89,-0.672 C 6.293,25.91 6.43,25.574 6.473,25.199 6.516,24.859 6.457,24.52 6.301,24.18 6.145,23.84 5.906,23.559 5.59,23.336 5.27,23.113 4.902,22.98 4.477,22.93 4.051,22.879 3.648,22.926 3.273,23.074 c -0.371,0.145 -0.671,0.364 -0.898,0.653 -0.227,0.289 -0.359,0.609 -0.398,0.961 -0.043,0.363 0.011,0.718 0.168,1.062 0.152,0.348 0.39,0.633 0.714,0.859" /></g></g></g></g><g
         id="g308"><g
           id="g310"><g
             clip-path="url(#clipPath316)"
             id="g312"><g
               id="g318"><path
                 id="path320"
                 style="fill:#1f4e86;fill-opacity:1;fill-rule:nonzero;stroke:none"
                 d="m 5.82,28.773 c 0.078,-0.007 0.133,0.016 0.172,0.071 0.035,0.054 0.063,0.199 0.082,0.433 0.031,0.356 0.024,0.598 -0.012,0.723 -0.039,0.129 -0.121,0.234 -0.25,0.32 -0.124,0.086 -0.3,0.137 -0.527,0.157 C 4.953,30.5 4.715,30.422 4.57,30.234 4.426,30.043 4.34,29.777 4.312,29.422 L 4.27,28.898 Z M 3.098,31.625 C 2.871,31.629 2.715,31.609 2.621,31.566 2.527,31.52 2.48,31.465 2.473,31.402 2.469,31.344 2.5,31.285 2.57,31.227 2.656,31.152 2.824,31.074 3.074,30.992 3.422,30.879 3.652,30.785 3.766,30.711 3.875,30.637 3.961,30.543 4.027,30.43 4.09,30.316 4.148,30.113 4.203,29.82 c 0.07,0.391 0.156,0.672 0.262,0.848 0.101,0.172 0.23,0.305 0.387,0.391 0.156,0.082 0.332,0.117 0.523,0.101 0.316,-0.023 0.566,-0.168 0.742,-0.43 0.176,-0.261 0.246,-0.613 0.211,-1.054 L 6.141,27.387 5.922,27.406 5.957,27.84 c 0.008,0.094 -0.004,0.164 -0.039,0.215 -0.031,0.047 -0.086,0.074 -0.16,0.082 L 2.312,28.418 C 2.246,28.422 2.195,28.406 2.152,28.363 2.113,28.32 2.09,28.25 2.082,28.156 L 2.047,27.723 1.828,27.738 1.996,29.797 2.215,29.777 2.18,29.355 c -0.008,-0.105 0.004,-0.179 0.035,-0.23 0.027,-0.039 0.074,-0.063 0.148,-0.07 l 1.692,-0.137 0.031,0.363 c 0.016,0.192 -0.004,0.356 -0.059,0.5 -0.054,0.141 -0.132,0.254 -0.238,0.324 -0.101,0.075 -0.281,0.137 -0.539,0.188 -0.441,0.09 -0.711,0.16 -0.812,0.211 -0.137,0.062 -0.239,0.152 -0.301,0.266 -0.063,0.109 -0.09,0.242 -0.075,0.386 0.036,0.465 0.387,0.688 1.051,0.672 z" /></g></g></g></g><g
         id="g322"><g
           id="g324"><g
             clip-path="url(#clipPath330)"
             id="g326"><g
               id="g332"><path
                 id="path334"
                 style="fill:#1f4e86;fill-opacity:1;fill-rule:nonzero;stroke:none"
                 d="M 4.844,35.816 C 3.918,35.953 3.355,35.66 3.156,34.941 L 2.973,34.281 C 2.949,34.184 2.945,34.109 2.965,34.059 2.988,34.008 3.027,33.977 3.086,33.961 l 1.66,-0.457 0.094,0.332 c 0.058,0.215 0.035,0.402 -0.07,0.566 -0.102,0.16 -0.313,0.293 -0.629,0.391 L 4.195,34.992 6.129,34.461 6.074,34.258 C 5.785,34.328 5.555,34.32 5.387,34.234 5.215,34.152 5.102,34.012 5.047,33.812 l -0.098,-0.363 1.485,-0.41 c 0.074,-0.019 0.132,-0.019 0.179,0.004 0.043,0.027 0.078,0.074 0.094,0.141 l 0.234,0.839 c 0.071,0.266 0.043,0.508 -0.086,0.723 -0.132,0.215 -0.41,0.422 -0.832,0.625 l 0.055,0.191 1.383,-0.468 -0.934,-3.395 -0.211,0.059 0.094,0.351 c 0.028,0.086 0.028,0.157 0,0.207 -0.023,0.051 -0.074,0.086 -0.144,0.106 l -3.309,0.91 C 2.883,33.352 2.82,33.344 2.77,33.309 2.719,33.273 2.676,33.199 2.645,33.082 l -0.079,-0.293 -0.211,0.059 0.969,3.531 1.578,-0.356 z" /></g></g></g></g><g
         id="g336"><g
           id="g338"><g
             clip-path="url(#clipPath344)"
             id="g340"><g
               id="g346"><path
                 id="path348"
                 style="fill:#1f4e86;fill-opacity:1;fill-rule:nonzero;stroke:none"
                 d="M 5.648,37.582 7.73,37.434 6.348,38.988 Z M 5.777,40.516 8.605,37.32 8.516,37.137 4.555,37.434 C 4.332,37.449 4.168,37.43 4.059,37.371 3.945,37.312 3.852,37.211 3.773,37.055 L 3.578,37.152 4.301,38.594 4.496,38.496 4.43,38.363 C 4.352,38.207 4.32,38.07 4.344,37.961 4.363,37.848 4.414,37.77 4.5,37.727 4.574,37.688 4.688,37.664 4.836,37.648 l 0.562,-0.05 0.79,1.574 -0.661,0.738 C 5.5,39.938 5.473,39.961 5.445,39.977 5.395,40.004 5.344,39.996 5.297,39.965 5.227,39.914 5.152,39.805 5.07,39.641 L 5.004,39.516 4.809,39.613 5.602,41.199 5.797,41.098 5.738,40.977 C 5.648,40.797 5.66,40.645 5.777,40.516" /></g></g></g></g><g
         id="g350"><g
           id="g352"><g
             clip-path="url(#clipPath358)"
             id="g354"><g
               id="g360"><path
                 id="path362"
                 style="fill:#1f4e86;fill-opacity:1;fill-rule:nonzero;stroke:none"
                 d="m 10.066,43.969 0.25,0.277 c 0.079,0.086 0.122,0.156 0.129,0.219 0.008,0.062 -0.011,0.117 -0.058,0.16 l -0.301,0.273 C 9.863,45.102 9.613,45.195 9.344,45.184 9.074,45.168 8.824,45.031 8.586,44.773 8.414,44.582 8.312,44.371 8.281,44.141 8.25,43.906 8.305,43.656 8.441,43.387 c 0.137,-0.274 0.391,-0.575 0.762,-0.914 0.383,-0.348 0.715,-0.575 1,-0.684 0.281,-0.113 0.547,-0.141 0.789,-0.086 0.242,0.059 0.449,0.18 0.625,0.371 0.227,0.25 0.321,0.567 0.285,0.946 -0.027,0.3 -0.172,0.675 -0.441,1.121 l 0.133,0.14 1.203,-1.242 L 12.66,42.891 12.176,43 C 12.152,42.73 12.105,42.512 12.035,42.34 11.969,42.172 11.871,42.02 11.742,41.879 11.523,41.637 11.227,41.461 10.859,41.355 10.496,41.25 10.121,41.246 9.746,41.336 9.367,41.43 9.02,41.617 8.699,41.906 c -0.32,0.289 -0.543,0.617 -0.668,0.985 -0.129,0.367 -0.156,0.73 -0.078,1.093 0.074,0.36 0.238,0.68 0.492,0.957 0.176,0.196 0.379,0.329 0.606,0.403 0.226,0.074 0.48,0.082 0.761,0.035 -0.124,0.215 -0.253,0.437 -0.398,0.664 l 0.133,0.145 1.226,-1.11 c 0.051,-0.051 0.11,-0.07 0.168,-0.058 0.063,0.007 0.129,0.058 0.207,0.14 l 0.168,0.188 0.153,-0.141 -1.254,-1.379 z" /></g></g></g></g><g
         id="g364"><g
           id="g366"><g
             clip-path="url(#clipPath372)"
             id="g368"><g
               id="g374"><path
                 id="path376"
                 style="fill:#1f4e86;fill-opacity:1;fill-rule:nonzero;stroke:none"
                 d="m 14.727,47.461 c -0.278,0.387 -0.551,0.664 -0.817,0.832 -0.265,0.168 -0.515,0.25 -0.754,0.246 -0.234,-0.008 -0.457,-0.086 -0.664,-0.234 -0.297,-0.219 -0.457,-0.52 -0.484,-0.907 -0.028,-0.382 0.187,-0.89 0.644,-1.515 0.422,-0.578 0.821,-0.922 1.203,-1.035 0.383,-0.114 0.731,-0.055 1.047,0.175 0.2,0.145 0.34,0.332 0.418,0.563 0.078,0.23 0.075,0.496 -0.008,0.797 -0.085,0.301 -0.277,0.66 -0.585,1.078 m 1.101,-0.695 c 0.051,-0.387 0,-0.754 -0.152,-1.102 -0.153,-0.348 -0.379,-0.633 -0.68,-0.852 -0.277,-0.203 -0.605,-0.32 -0.976,-0.351 -0.372,-0.031 -0.731,0.039 -1.082,0.207 -0.348,0.172 -0.649,0.426 -0.899,0.77 -0.254,0.351 -0.41,0.722 -0.465,1.121 -0.054,0.398 -0.012,0.765 0.129,1.101 0.141,0.34 0.356,0.613 0.645,0.82 0.293,0.219 0.629,0.34 1.007,0.375 0.375,0.036 0.743,-0.031 1.098,-0.203 0.356,-0.172 0.66,-0.433 0.914,-0.781 0.254,-0.348 0.406,-0.719 0.461,-1.105" /></g></g></g></g><g
         id="g378"><g
           id="g380"><g
             clip-path="url(#clipPath386)"
             id="g382"><g
               id="g388"><path
                 id="path390"
                 style="fill:#1f4e86;fill-opacity:1;fill-rule:nonzero;stroke:none"
                 d="m 19,48.922 0.664,-1.434 -0.199,-0.093 -0.406,0.222 c -0.098,-0.211 -0.211,-0.383 -0.336,-0.515 -0.121,-0.129 -0.27,-0.235 -0.438,-0.313 -0.351,-0.168 -0.691,-0.195 -1.019,-0.082 -0.332,0.109 -0.578,0.34 -0.743,0.684 -0.156,0.328 -0.164,0.636 -0.023,0.925 0.102,0.204 0.348,0.461 0.746,0.774 0.359,0.281 0.59,0.488 0.699,0.621 0.106,0.129 0.168,0.254 0.188,0.379 0.015,0.125 -0.004,0.25 -0.063,0.375 -0.105,0.219 -0.277,0.367 -0.519,0.441 -0.242,0.074 -0.496,0.047 -0.766,-0.082 -0.332,-0.156 -0.57,-0.418 -0.723,-0.785 -0.148,-0.367 -0.16,-0.777 -0.039,-1.23 l -0.195,-0.094 -0.719,1.515 0.196,0.094 0.48,-0.222 c 0.18,0.406 0.481,0.71 0.895,0.906 0.382,0.183 0.754,0.215 1.105,0.101 0.356,-0.117 0.613,-0.351 0.781,-0.703 0.094,-0.199 0.133,-0.39 0.114,-0.582 -0.016,-0.187 -0.094,-0.375 -0.227,-0.554 -0.137,-0.184 -0.402,-0.43 -0.805,-0.735 -0.289,-0.219 -0.472,-0.387 -0.562,-0.5 -0.086,-0.113 -0.133,-0.23 -0.148,-0.351 -0.012,-0.122 0.011,-0.246 0.07,-0.372 0.094,-0.203 0.254,-0.335 0.469,-0.402 0.222,-0.066 0.449,-0.043 0.687,0.07 0.285,0.137 0.492,0.356 0.617,0.661 0.121,0.304 0.137,0.703 0.043,1.195 z" /></g></g></g></g><g
         id="g392"><g
           id="g394"><g
             clip-path="url(#clipPath400)"
             id="g396"><g
               id="g402"><path
                 id="path404"
                 style="fill:#1f4e86;fill-opacity:1;fill-rule:nonzero;stroke:none"
                 d="m 22.645,49.652 c -0.098,0.344 -0.247,0.567 -0.45,0.672 -0.207,0.106 -0.492,0.106 -0.859,0.004 l -0.582,-0.164 0.457,-1.633 c 0.027,-0.097 0.074,-0.156 0.141,-0.179 0.07,-0.024 0.21,-0.008 0.421,0.054 0.325,0.09 0.551,0.184 0.672,0.285 0.125,0.102 0.207,0.227 0.243,0.375 0.039,0.149 0.023,0.344 -0.043,0.586 m -0.493,-1.343 -2.109,-0.59 -0.063,0.215 0.321,0.086 c 0.137,0.039 0.226,0.085 0.269,0.136 0.039,0.051 0.047,0.121 0.024,0.203 l -0.926,3.325 c -0.016,0.058 -0.047,0.097 -0.098,0.117 -0.05,0.023 -0.117,0.023 -0.199,0 l -0.433,-0.121 -0.059,0.211 2.059,0.574 0.058,-0.211 -0.484,-0.137 c -0.094,-0.027 -0.16,-0.066 -0.2,-0.129 -0.031,-0.047 -0.035,-0.109 -0.011,-0.191 l 0.398,-1.426 0.762,0.211 c 0.465,0.133 0.891,0.117 1.281,-0.039 0.278,-0.117 0.465,-0.344 0.563,-0.684 0.093,-0.339 0.043,-0.648 -0.149,-0.929 -0.191,-0.282 -0.527,-0.489 -1.004,-0.621" /></g></g></g></g><g
         id="g406"><g
           id="g408"><g
             clip-path="url(#clipPath414)"
             id="g410"><g
               id="g416"><path
                 id="path418"
                 style="fill:#1f4e86;fill-opacity:1;fill-rule:nonzero;stroke:none"
                 d="m 25.105,49.133 c 0.043,-0.035 0.098,-0.047 0.165,-0.043 l 0.867,0.078 c 0.277,0.023 0.496,0.133 0.652,0.332 0.156,0.195 0.254,0.527 0.293,0.992 l 0.199,0.02 0.043,-1.465 -3.508,-0.301 -0.019,0.219 0.363,0.031 c 0.09,0.008 0.152,0.031 0.192,0.07 0.039,0.043 0.054,0.102 0.05,0.176 l -0.297,3.418 c -0.003,0.074 -0.035,0.133 -0.085,0.168 -0.051,0.035 -0.137,0.047 -0.254,0.039 l -0.301,-0.027 -0.02,0.219 3.649,0.316 0.215,-1.602 -0.215,-0.019 c -0.196,0.918 -0.664,1.344 -1.406,1.277 l -0.684,-0.058 c -0.102,-0.008 -0.172,-0.032 -0.211,-0.071 -0.039,-0.035 -0.059,-0.086 -0.051,-0.144 l 0.149,-1.715 0.343,0.027 c 0.223,0.02 0.391,0.106 0.504,0.262 0.117,0.152 0.168,0.395 0.149,0.727 l 0.207,0.019 0.172,-2 -0.207,-0.016 c -0.036,0.293 -0.121,0.504 -0.262,0.633 -0.137,0.133 -0.309,0.192 -0.512,0.172 l -0.379,-0.031 0.133,-1.539 c 0.008,-0.074 0.027,-0.129 0.066,-0.164" /></g></g></g></g><g
         id="g420"><g
           id="g422"><g
             clip-path="url(#clipPath428)"
             id="g424"><g
               id="g430"><path
                 id="path432"
                 style="fill:#1f4e86;fill-opacity:1;fill-rule:nonzero;stroke:none"
                 d="m 31.523,51.359 c -0.046,0.539 -0.16,0.926 -0.351,1.164 -0.188,0.235 -0.449,0.368 -0.777,0.399 l -0.622,0.062 c -0.144,0.012 -0.238,0.004 -0.289,-0.023 -0.05,-0.031 -0.078,-0.086 -0.086,-0.168 l -0.332,-3.398 c -0.007,-0.086 0.004,-0.149 0.036,-0.192 0.035,-0.047 0.089,-0.07 0.168,-0.078 l 0.488,-0.047 -0.02,-0.219 -2.05,0.2 0.019,0.218 0.449,-0.043 c 0.082,-0.007 0.145,0.004 0.192,0.036 0.047,0.035 0.07,0.085 0.078,0.156 l 0.328,3.367 c 0.012,0.102 -0.008,0.176 -0.051,0.227 -0.047,0.05 -0.133,0.082 -0.254,0.093 l -0.363,0.035 0.023,0.219 3.684,-0.363 -0.063,-1.664 z" /></g></g></g></g><g
         id="g434"><g
           id="g436"><g
             clip-path="url(#clipPath442)"
             id="g438"><g
               id="g444"><path
                 id="path446"
                 style="fill:#1f4e86;fill-opacity:1;fill-rule:nonzero;stroke:none"
                 d="m 37.16,50.961 c -0.105,0.203 -0.328,0.363 -0.664,0.488 l -0.504,0.184 c -0.117,0.043 -0.203,0.051 -0.258,0.031 -0.058,-0.019 -0.101,-0.066 -0.129,-0.141 l -0.57,-1.566 0.856,-0.312 c 0.293,-0.11 0.55,-0.11 0.777,-0.012 0.223,0.097 0.387,0.289 0.488,0.57 0.11,0.301 0.11,0.555 0.004,0.758 M 34.961,49.75 34.43,48.301 c -0.028,-0.082 -0.02,-0.149 0.023,-0.199 0.043,-0.051 0.176,-0.122 0.406,-0.204 0.321,-0.117 0.555,-0.175 0.703,-0.171 0.153,0.003 0.282,0.046 0.387,0.128 0.11,0.086 0.199,0.227 0.274,0.422 0.113,0.317 0.125,0.571 0.031,0.766 -0.094,0.187 -0.262,0.328 -0.504,0.418 z m 2.344,-0.348 c -0.258,-0.101 -0.598,-0.121 -1.024,-0.058 0.285,-0.211 0.477,-0.426 0.578,-0.645 0.098,-0.219 0.106,-0.441 0.02,-0.676 -0.098,-0.273 -0.297,-0.461 -0.59,-0.562 -0.293,-0.102 -0.652,-0.074 -1.082,0.082 l -2.176,0.793 0.074,0.207 0.368,-0.133 c 0.089,-0.035 0.168,-0.039 0.23,-0.015 0.059,0.023 0.106,0.07 0.133,0.148 l 1.187,3.258 c 0.016,0.043 0.004,0.09 -0.031,0.14 -0.035,0.051 -0.105,0.094 -0.207,0.129 l -0.347,0.129 0.078,0.203 2.109,-0.769 c 0.332,-0.121 0.609,-0.281 0.828,-0.485 0.223,-0.203 0.359,-0.402 0.414,-0.601 0.055,-0.195 0.047,-0.395 -0.027,-0.598 -0.094,-0.261 -0.274,-0.445 -0.535,-0.547" /></g></g></g></g><g
         id="g448"><g
           id="g450"><g
             clip-path="url(#clipPath456)"
             id="g452"><g
               id="g458"><path
                 id="path460"
                 style="fill:#1f4e86;fill-opacity:1;fill-rule:nonzero;stroke:none"
                 d="m 41.309,48.902 c -0.094,0.215 -0.25,0.391 -0.469,0.524 -0.313,0.195 -0.652,0.226 -1.02,0.105 -0.367,-0.121 -0.754,-0.511 -1.16,-1.172 -0.371,-0.609 -0.539,-1.113 -0.496,-1.507 0.039,-0.399 0.227,-0.696 0.559,-0.903 0.211,-0.129 0.437,-0.183 0.679,-0.172 0.246,0.016 0.493,0.118 0.735,0.309 0.246,0.195 0.504,0.512 0.777,0.953 0.246,0.406 0.398,0.762 0.457,1.074 0.055,0.309 0.035,0.571 -0.062,0.789 m -0.621,-3.14 c -0.336,-0.2 -0.696,-0.293 -1.075,-0.285 -0.383,0.007 -0.73,0.109 -1.051,0.304 -0.292,0.18 -0.523,0.438 -0.695,0.77 -0.168,0.332 -0.242,0.691 -0.219,1.078 0.024,0.391 0.149,0.766 0.372,1.125 0.226,0.371 0.511,0.656 0.855,0.859 0.348,0.199 0.707,0.301 1.07,0.301 0.367,-0.004 0.703,-0.098 1.004,-0.285 0.313,-0.188 0.555,-0.453 0.731,-0.789 0.175,-0.336 0.254,-0.699 0.23,-1.094 -0.023,-0.394 -0.148,-0.773 -0.375,-1.141 -0.226,-0.367 -0.508,-0.648 -0.847,-0.843" /></g></g></g></g><g
         id="g462"><g
           id="g464"><g
             clip-path="url(#clipPath470)"
             id="g466"><g
               id="g472"><path
                 id="path474"
                 style="fill:#1f4e86;fill-opacity:1;fill-rule:nonzero;stroke:none"
                 d="m 45.355,45.617 c -0.05,0.231 -0.167,0.434 -0.355,0.61 -0.262,0.253 -0.59,0.359 -0.973,0.312 -0.382,-0.043 -0.843,-0.344 -1.375,-0.906 -0.492,-0.52 -0.757,-0.977 -0.8,-1.371 -0.043,-0.399 0.078,-0.731 0.359,-1 0.18,-0.168 0.391,-0.274 0.633,-0.309 0.242,-0.035 0.504,0.016 0.781,0.152 0.281,0.137 0.598,0.395 0.957,0.77 0.324,0.344 0.547,0.664 0.668,0.957 0.117,0.293 0.152,0.551 0.105,0.785 m -0.257,-2.293 c -0.293,-0.312 -0.629,-0.531 -1,-0.652 -0.371,-0.125 -0.743,-0.141 -1.114,-0.055 -0.371,0.086 -0.691,0.258 -0.961,0.516 -0.25,0.238 -0.425,0.535 -0.523,0.894 -0.094,0.36 -0.094,0.727 0.012,1.102 0.101,0.375 0.3,0.715 0.593,1.027 0.297,0.313 0.633,0.532 1.016,0.656 0.379,0.129 0.75,0.153 1.109,0.075 0.356,-0.075 0.665,-0.239 0.922,-0.485 0.266,-0.25 0.45,-0.558 0.551,-0.922 0.102,-0.367 0.102,-0.738 -0.004,-1.117 -0.101,-0.379 -0.304,-0.726 -0.601,-1.039" /></g></g></g></g><g
         id="g476"><g
           id="g478"><g
             clip-path="url(#clipPath484)"
             id="g480"><g
               id="g486"><path
                 id="path488"
                 style="fill:#1f4e86;fill-opacity:1;fill-rule:nonzero;stroke:none"
                 d="m 49.664,40.285 c -0.066,0.102 -0.148,0.172 -0.238,0.215 -0.094,0.043 -0.211,0.066 -0.356,0.066 h -2.578 l -0.273,-1.441 c -0.031,-0.172 -0.035,-0.34 -0.008,-0.5 0.027,-0.16 0.074,-0.289 0.141,-0.391 l 0.082,-0.117 -0.18,-0.125 -1.039,1.496 0.18,0.129 0.07,-0.101 c 0.086,-0.125 0.164,-0.204 0.238,-0.231 0.07,-0.031 0.137,-0.027 0.192,0.012 0.074,0.051 0.125,0.148 0.152,0.285 l 0.476,2.367 -1.652,-1.148 c -0.059,-0.039 -0.094,-0.094 -0.101,-0.164 -0.012,-0.067 0.011,-0.141 0.062,-0.215 l 0.246,-0.356 -0.18,-0.125 -1.156,1.668 0.18,0.125 0.187,-0.269 c 0.075,-0.106 0.141,-0.172 0.203,-0.195 0.063,-0.02 0.122,-0.012 0.176,0.027 l 2.84,1.973 c 0.051,0.035 0.082,0.085 0.086,0.148 0.008,0.059 -0.019,0.133 -0.078,0.215 l -0.223,0.32 0.18,0.129 1.16,-1.668 -0.18,-0.125 -0.246,0.352 c -0.05,0.074 -0.113,0.125 -0.187,0.148 -0.051,0.016 -0.102,0.004 -0.156,-0.035 l -0.875,-0.606 -0.2,-0.988 2.141,-0.004 c 0.043,0 0.082,0.012 0.113,0.032 0.032,0.023 0.047,0.066 0.035,0.128 -0.007,0.059 -0.058,0.157 -0.156,0.293 l -0.129,0.188 0.18,0.129 1.145,-1.649 -0.18,-0.125 z" /></g></g></g></g><g
         id="g490"><g
           id="g492"><g
             clip-path="url(#clipPath498)"
             id="g494"><g
               id="g500"><path
                 id="path502"
                 style="fill:#1f4e86;fill-opacity:1;fill-rule:nonzero;stroke:none"
                 d="m 49.41,35.566 -0.176,0.496 -1.464,-0.523 c -0.075,-0.027 -0.118,-0.07 -0.129,-0.133 -0.012,-0.066 0.023,-0.207 0.101,-0.429 0.121,-0.34 0.227,-0.559 0.313,-0.657 0.086,-0.097 0.207,-0.16 0.355,-0.187 0.149,-0.028 0.332,0 0.547,0.078 0.313,0.109 0.496,0.281 0.551,0.512 0.054,0.23 0.023,0.511 -0.098,0.843 m 2.082,-1.695 -0.07,0.191 c 0.207,0.086 0.344,0.172 0.41,0.25 0.066,0.083 0.09,0.149 0.066,0.208 -0.019,0.058 -0.07,0.097 -0.156,0.121 -0.113,0.035 -0.297,0.035 -0.558,0.007 -0.368,-0.039 -0.614,-0.05 -0.746,-0.027 -0.129,0.024 -0.25,0.07 -0.356,0.149 -0.102,0.078 -0.238,0.238 -0.406,0.48 0.094,-0.383 0.133,-0.676 0.109,-0.879 -0.023,-0.199 -0.086,-0.375 -0.195,-0.516 -0.11,-0.14 -0.25,-0.242 -0.434,-0.308 -0.301,-0.106 -0.586,-0.078 -0.851,0.086 -0.27,0.164 -0.477,0.457 -0.629,0.875 l -0.77,2.16 0.207,0.074 0.145,-0.41 c 0.031,-0.086 0.074,-0.148 0.125,-0.18 0.051,-0.031 0.109,-0.031 0.179,-0.007 l 3.258,1.164 c 0.059,0.023 0.098,0.058 0.121,0.113 0.02,0.058 0.012,0.129 -0.019,0.219 l -0.149,0.41 0.207,0.074 0.696,-1.941 -0.207,-0.075 -0.145,0.403 c -0.035,0.093 -0.078,0.16 -0.129,0.191 -0.039,0.027 -0.093,0.027 -0.16,0.004 l -1.601,-0.574 0.121,-0.34 c 0.066,-0.184 0.152,-0.328 0.261,-0.434 0.11,-0.109 0.227,-0.175 0.352,-0.199 0.125,-0.023 0.312,-0.008 0.566,0.051 0.442,0.101 0.715,0.152 0.828,0.148 0.153,-0.004 0.278,-0.047 0.383,-0.121 0.106,-0.078 0.18,-0.183 0.231,-0.324 0.156,-0.437 -0.074,-0.785 -0.684,-1.043" /></g></g></g></g><g
         id="g504"><g
           id="g506"><g
             clip-path="url(#clipPath512)"
             id="g508"><g
               id="g514"><path
                 id="path516"
                 style="fill:#1f4e86;fill-opacity:1;fill-rule:nonzero;stroke:none"
                 d="m 52.789,31.262 c -0.055,0.359 -0.246,0.644 -0.578,0.843 -0.332,0.204 -0.879,0.247 -1.645,0.129 -0.707,-0.105 -1.195,-0.3 -1.472,-0.589 -0.278,-0.286 -0.387,-0.622 -0.328,-1.008 0.035,-0.246 0.14,-0.457 0.308,-0.633 0.168,-0.176 0.403,-0.297 0.711,-0.359 0.305,-0.063 0.711,-0.059 1.227,0.019 0.468,0.07 0.84,0.188 1.113,0.344 0.273,0.156 0.461,0.344 0.563,0.554 0.105,0.211 0.14,0.446 0.101,0.7 m -0.598,-1.903 c -0.312,-0.234 -0.683,-0.386 -1.113,-0.449 -0.426,-0.066 -0.82,-0.031 -1.191,0.102 -0.367,0.133 -0.672,0.343 -0.91,0.64 -0.239,0.293 -0.387,0.625 -0.442,0.996 -0.051,0.34 -0.004,0.684 0.141,1.028 0.144,0.344 0.371,0.633 0.683,0.863 0.313,0.234 0.676,0.383 1.098,0.445 0.426,0.063 0.828,0.028 1.207,-0.105 0.379,-0.133 0.684,-0.344 0.918,-0.621 0.238,-0.281 0.379,-0.602 0.434,-0.953 0.054,-0.36 0.011,-0.715 -0.133,-1.067 -0.145,-0.347 -0.375,-0.644 -0.692,-0.879" /></g></g></g></g><g
         id="g518"><g
           id="g520"><g
             clip-path="url(#clipPath526)"
             id="g522"><g
               id="g528"><path
                 id="path530"
                 style="fill:#1f4e86;fill-opacity:1;fill-rule:nonzero;stroke:none"
                 d="m 52.648,26.969 c -0.281,0.265 -0.812,0.418 -1.586,0.457 -0.71,0.039 -1.234,-0.055 -1.562,-0.281 -0.328,-0.223 -0.5,-0.532 -0.523,-0.922 -0.012,-0.246 0.046,-0.473 0.175,-0.68 0.129,-0.207 0.34,-0.375 0.621,-0.496 0.289,-0.125 0.692,-0.199 1.207,-0.227 0.477,-0.027 0.864,0.012 1.161,0.11 0.3,0.101 0.523,0.246 0.668,0.433 0.144,0.184 0.222,0.407 0.234,0.664 0.019,0.364 -0.113,0.68 -0.395,0.942 m -0.57,-2.688 c -0.355,-0.164 -0.75,-0.238 -1.18,-0.215 -0.429,0.024 -0.812,0.133 -1.148,0.34 -0.332,0.203 -0.586,0.473 -0.762,0.809 -0.176,0.336 -0.254,0.691 -0.234,1.066 0.019,0.344 0.133,0.668 0.344,0.977 0.211,0.308 0.492,0.547 0.843,0.711 0.352,0.164 0.739,0.238 1.164,0.215 0.43,-0.024 0.817,-0.141 1.161,-0.348 0.343,-0.207 0.605,-0.473 0.777,-0.793 0.172,-0.32 0.25,-0.66 0.23,-1.016 -0.015,-0.367 -0.132,-0.703 -0.343,-1.019 -0.211,-0.317 -0.496,-0.559 -0.852,-0.727" /></g></g></g></g><g
         id="g532"><g
           id="g534"><g
             clip-path="url(#clipPath540)"
             id="g536"><g
               id="g542"><path
                 id="path544"
                 style="fill:#1f4e86;fill-opacity:1;fill-rule:nonzero;stroke:none"
                 d="m 47.902,19.387 c -0.086,0.023 -0.156,0.019 -0.203,-0.012 -0.047,-0.031 -0.09,-0.109 -0.129,-0.234 l -0.105,-0.356 -0.211,0.063 0.434,1.453 3.624,0.191 -2.898,2.25 0.422,1.418 0.211,-0.062 -0.106,-0.364 c -0.039,-0.121 -0.046,-0.207 -0.027,-0.261 0.02,-0.055 0.066,-0.09 0.137,-0.114 l 2.863,-0.851 c 0.234,-0.07 0.414,-0.07 0.535,-0.008 0.125,0.066 0.231,0.23 0.328,0.488 l 0.211,-0.062 -0.48,-1.606 -0.211,0.063 c 0.047,0.199 0.062,0.351 0.039,0.449 -0.024,0.102 -0.07,0.188 -0.145,0.258 -0.078,0.074 -0.203,0.137 -0.382,0.191 l -3.016,0.899 3.469,-2.688 -0.059,-0.191 -4.359,-0.235 3.527,-1.05 c 0.059,-0.02 0.113,-0.008 0.168,0.031 0.051,0.039 0.094,0.109 0.125,0.215 l 0.109,0.363 0.211,-0.063 -0.582,-1.949 -0.207,0.063 0.094,0.324 c 0.039,0.129 0.047,0.223 0.027,0.285 -0.019,0.063 -0.062,0.102 -0.128,0.121 z" /></g></g></g></g><g
         id="g546"><g
           id="g548"><g
             clip-path="url(#clipPath554)"
             id="g550"><g
               id="g556"><path
                 id="path558"
                 style="fill:#1f4e86;fill-opacity:1;fill-rule:nonzero;stroke:none"
                 d="m 69.039,32.434 c 0.199,0 0.356,-0.012 0.449,-0.02 H 94.781 V 19.727 h 2.77 v -3.739 h -2.77 V 5.605 h -3.738 v 23.071 l -21.715,0.004 -0.086,0.004 c -0.277,0.019 -1.254,0.027 -1.887,-0.555 -0.476,-0.426 -0.718,-1.184 -0.718,-2.246 v -2.977 h -3.739 v 2.977 c 0,2.179 0.668,3.883 1.981,5.055 1.465,1.3 3.234,1.496 4.16,1.496" /></g></g></g></g><g
         id="g560"><g
           id="g562"><g
             clip-path="url(#clipPath568)"
             id="g564"><g
               id="g570"><path
                 id="path572"
                 style="fill:#1f4e86;fill-opacity:1;fill-rule:nonzero;stroke:none"
                 d="M 278.039,33.023 V 6.047 h -3.738 v 8.937 h -5.559 v 3.739 h 5.559 v 10.562 h -21.723 l -0.082,0.012 c -0.016,-0.004 -1.18,0.086 -1.887,-0.555 -0.472,-0.426 -0.714,-1.187 -0.714,-2.254 v -2.976 h -3.739 v 2.976 c 0,2.18 0.664,3.883 1.981,5.055 1.461,1.301 3.246,1.496 4.175,1.496 0.192,0 0.344,-0.008 0.434,-0.016 z" /></g></g></g></g><g
         id="g574"><g
           id="g576"><g
             clip-path="url(#clipPath582)"
             id="g578"><g
               id="g584"><path
                 id="path586"
                 style="fill:#1f4e86;fill-opacity:1;fill-rule:nonzero;stroke:none"
                 d="m 125.262,9.418 c 0.14,-0.016 1.176,-0.078 1.832,0.5 0.48,0.43 0.726,1.207 0.726,2.309 v 2.976 h 3.739 v -2.976 c 0,-2.239 -0.68,-3.965 -2.02,-5.133 -1.707,-1.489 -3.793,-1.473 -4.586,-1.399 h -24.535 v 3.743 l 24.758,-0.004 z" /></g></g></g></g><g
         id="g588"><g
           id="g590"><g
             clip-path="url(#clipPath596)"
             id="g592"><g
               id="g598"><path
                 id="path600"
                 style="fill:#1f4e86;fill-opacity:1;fill-rule:nonzero;stroke:none"
                 d="m 167.465,33.25 v -2.855 c 0,-2.243 -0.68,-3.969 -2.02,-5.137 -1.836,-1.602 -4.164,-1.442 -4.582,-1.395 h -24.441 v 3.735 h 24.613 l 0.153,-0.012 c 0.113,-0.012 1.14,-0.094 1.808,0.496 0.488,0.43 0.731,1.207 0.731,2.313 v 2.855 z" /></g></g></g></g><g
         id="g602"><g
           id="g604"><g
             clip-path="url(#clipPath610)"
             id="g606"><g
               id="g612"><path
                 id="path614"
                 style="fill:#1f4e86;fill-opacity:1;fill-rule:nonzero;stroke:none"
                 d="m 176.055,24.613 h 24.355 v 4.84 l -21.691,0.004 -0.09,0.012 c -0.199,0.015 -1.207,0.062 -1.848,-0.5 -0.48,-0.43 -0.726,-1.207 -0.726,-2.309 z m -3.739,2.047 c 0,2.235 0.68,3.965 2.024,5.141 1.422,1.234 3.117,1.418 4,1.418 0.262,0 0.472,-0.016 0.578,-0.028 h 25.23 V 20.879 h -31.832 z" /></g></g></g></g><g
         id="g616"><g
           id="g618"><g
             clip-path="url(#clipPath624)"
             id="g620"><g
               id="g626"><path
                 id="path628"
                 style="fill:#1f4e86;fill-opacity:1;fill-rule:nonzero;stroke:none"
                 d="m 188.234,14.77 c -2.269,0 -4.113,-1.848 -4.113,-4.118 0,-2.269 1.844,-4.113 4.113,-4.113 2.266,0 4.11,1.844 4.11,4.113 0,2.27 -1.844,4.118 -4.11,4.118 m 17.399,0.214 h -10.86 c 0.86,-1.289 1.309,-2.777 1.309,-4.332 0,-4.328 -3.52,-7.851 -7.848,-7.851 -4.328,0 -7.851,3.523 -7.851,7.851 0,1.555 0.449,3.043 1.308,4.332 h -10.32 v 3.739 h 34.262 z" /></g></g></g></g><g
         id="g630"><g
           id="g632"><g
             clip-path="url(#clipPath638)"
             id="g634"><g
               id="g640"><path
                 id="path642"
                 style="fill:#1f4e86;fill-opacity:1;fill-rule:nonzero;stroke:none"
                 d="m 73.949,10 c 2.27,0 4.113,1.844 4.113,4.117 0,2.266 -1.843,4.113 -4.113,4.113 -2.269,0 -4.113,-1.847 -4.113,-4.113 0,-2.273 1.844,-4.117 4.113,-4.117 m -7.851,4.117 c 0,4.328 3.523,7.852 7.851,7.852 4.332,0 7.852,-3.524 7.852,-7.852 0,-1.523 -0.434,-2.984 -1.262,-4.258 h 4.356 V 6.121 H 75.914 V 3.035 h -3.738 v 3.086 h -8.875 v 3.738 h 4.058 c -0.828,1.274 -1.261,2.735 -1.261,4.258" /></g></g></g></g><g
         id="g644"><g
           id="g646"><g
             clip-path="url(#clipPath652)"
             id="g648"><g
               id="g654"><path
                 id="path656"
                 style="fill:#1f4e86;fill-opacity:1;fill-rule:nonzero;stroke:none"
                 d="m 129.539,24.246 c -1.699,-1.48 -3.789,-1.473 -4.586,-1.398 h -7.762 V 19.727 H 132.02 V 15.988 H 99.488 v 3.739 h 13.965 v 3.121 h -13.332 v 3.746 l 25.059,-0.008 0.078,-0.016 c 0.117,-0.008 1.176,-0.082 1.836,0.508 0.484,0.426 0.726,1.199 0.726,2.301 v 4.266 h 3.739 v -4.266 c 0,-2.238 -0.68,-3.965 -2.02,-5.133" /></g></g></g></g><g
         id="g658"><g
           id="g660"><g
             clip-path="url(#clipPath666)"
             id="g662"><g
               id="g668"><path
                 id="path670"
                 style="fill:#1f4e86;fill-opacity:1;fill-rule:nonzero;stroke:none"
                 d="m 237.238,33.426 h 3.735 V 6.137 h -3.735 v 8.847 h -5.875 v 3.739 h 5.875 z" /></g></g></g></g><g
         id="g672"><g
           id="g674"><g
             clip-path="url(#clipPath680)"
             id="g676"><g
               id="g682"><path
                 id="path684"
                 style="fill:#1f4e86;fill-opacity:1;fill-rule:nonzero;stroke:none"
                 d="m 253.535,11.066 c 0,-2.046 1.66,-3.707 3.699,-3.707 2.047,0 3.707,1.661 3.707,3.707 0,2.039 -1.66,3.704 -3.707,3.704 -2.039,0 -3.699,-1.665 -3.699,-3.704 m 1.938,13.133 h 3.734 v -5.476 h 7.664 v -3.739 h -3.316 c 0.734,-1.179 1.121,-2.523 1.121,-3.918 0,-4.101 -3.336,-7.437 -7.442,-7.437 -4.097,0 -7.433,3.336 -7.433,7.437 0,1.399 0.387,2.743 1.121,3.918 h -4.426 v 3.739 h 8.977 z" /></g></g></g></g><g
         id="g686"><g
           id="g688"><g
             clip-path="url(#clipPath694)"
             id="g690"><g
               id="g696"><path
                 id="path698"
                 style="fill:#1f4e86;fill-opacity:1;fill-rule:nonzero;stroke:none"
                 d="m 142.766,12.621 c -0.293,0.008 -1.418,-0.039 -2.09,-0.687 -0.117,-0.114 -0.223,-0.246 -0.313,-0.399 h 22.688 v 1.086 z m 25.117,5.617 h -14.457 v -1.879 h 13.363 V 5.566 h -3.738 V 7.801 H 139.988 V 5.559 h -3.738 v 4.265 c 0,2.035 0.629,3.664 1.875,4.84 1.82,1.723 4.281,1.719 4.746,1.695 h 6.817 v 1.879 h -14.239 v 3.735 h 32.434 z" /></g></g></g></g><g
         id="g700"><g
           id="g702"><g
             clip-path="url(#clipPath708)"
             id="g704"><g
               id="g710"><path
                 id="path712"
                 style="fill:#1f4e86;fill-opacity:1;fill-rule:nonzero;stroke:none"
                 d="m 226.246,6.125 -0.047,-0.238 -1.261,-0.203 c -3.454,-0.551 -6.672,0.187 -9.297,2.144 -3.192,2.379 -3.813,6.02 -3.871,6.399 -0.016,0.07 -1.75,7.097 -3.52,14.293 l -1.078,4.355 3.828,0.07 4.438,-18 0.003,-0.066 c 0.047,-0.266 0.5,-2.629 2.461,-4.078 1.063,-0.785 2.817,-1.672 5.2,-1.531 0.511,2.406 3.175,15.007 4.371,20.687 0.355,1.664 0.578,2.731 0.589,2.781 l 0.059,0.274 3.809,0.011 z" /></g></g></g></g><g
         id="g714"><g
           id="g716"><g
             clip-path="url(#clipPath722)"
             id="g718"><g
               id="g724"><path
                 id="path726"
                 style="fill:#1f4e86;fill-opacity:1;fill-rule:nonzero;stroke:none"
                 d="m 75.137,36.953 h -3.949 l -5.059,6.231 v -6.231 h -3.043 v 13.863 h 3.043 v -3.562 l 1.844,-2.121 3.871,5.629 0.035,0.054 h 3.566 l -5.496,-7.968 z" /></g></g></g></g><g
         id="g728"><g
           id="g730"><g
             clip-path="url(#clipPath736)"
             id="g732"><g
               id="g738"><path
                 id="path740"
                 style="fill:#1f4e86;fill-opacity:1;fill-rule:nonzero;stroke:none"
                 d="m 80.488,48.98 c -1.25,-0.039 -1.879,-1.031 -1.914,-3.039 0,-2.086 0.625,-3.105 1.906,-3.105 1.293,0.043 1.938,1.059 1.977,3.105 0,2.047 -0.645,3.039 -1.969,3.039 m 0.051,-8.355 c -3.207,0.129 -4.914,1.914 -5.07,5.324 0.156,3.223 1.843,4.946 5.023,5.121 3.207,-0.132 4.891,-1.855 5.012,-5.125 V 45.938 C 85.383,42.5 83.719,40.711 80.539,40.625" /></g></g></g></g><g
         id="g742"><g
           id="g744"><g
             clip-path="url(#clipPath750)"
             id="g746"><g
               id="g752"><path
                 id="path754"
                 style="fill:#1f4e86;fill-opacity:1;fill-rule:nonzero;stroke:none"
                 d="m 86.395,44.359 v 6.645 h 2.988 v -6.649 c -0.02,-0.503 0.094,-0.878 0.332,-1.117 0.242,-0.242 0.64,-0.351 1.172,-0.336 h 2.398 v -2.214 h -3.387 c -2.324,0 -3.503,1.234 -3.503,3.671" /></g></g></g></g><g
         id="g756"><g
           id="g758"><g
             clip-path="url(#clipPath764)"
             id="g760"><g
               id="g766"><path
                 id="path768"
                 style="fill:#1f4e86;fill-opacity:1;fill-rule:nonzero;stroke:none"
                 d="m 96.66,44.742 c 0.211,-1.281 0.852,-1.902 1.949,-1.902 1.286,0.039 1.95,0.66 2.028,1.902 z m 1.832,-4.054 c -3.211,0.089 -4.879,1.898 -4.957,5.386 0.16,3.227 1.961,4.93 5.367,5.059 1.93,0 3.453,-0.59 4.52,-1.75 l 0.031,-0.039 v -2.395 l -0.215,0.239 c -1.136,1.234 -2.398,1.859 -3.746,1.859 -1.64,-0.082 -2.586,-0.785 -2.883,-2.156 h 6.961 v -0.125 c 0.043,-2.235 -0.445,-3.871 -1.453,-4.871 -0.84,-0.84 -2.047,-1.247 -3.625,-1.207" /></g></g></g></g><g
         id="g770"><g
           id="g772"><g
             clip-path="url(#clipPath778)"
             id="g774"><g
               id="g780"><path
                 id="path782"
                 style="fill:#1f4e86;fill-opacity:1;fill-rule:nonzero;stroke:none"
                 d="m 111.16,48.98 h -1.972 c -0.797,0 -1.344,-0.148 -1.626,-0.441 -0.167,-0.176 -0.242,-0.402 -0.23,-0.707 -0.027,-0.328 0.047,-0.574 0.227,-0.766 0.273,-0.285 0.796,-0.433 1.566,-0.433 0.059,0 0.121,0 0.18,0.004 h 1.855 z m -1.914,-8.355 c -2.574,0.043 -4.164,1.16 -4.719,3.324 l -0.043,0.156 h 2.743 l 0.035,-0.07 c 0.371,-0.765 1.023,-1.156 1.984,-1.199 1.164,0.039 1.774,0.582 1.852,1.652 h -1.789 c -1.989,-0.07 -3.387,0.301 -4.168,1.114 -0.571,0.597 -0.821,1.441 -0.735,2.496 0.078,1.929 1.414,2.925 3.969,2.972 h 5.656 v -6.074 c 0.039,-1.422 -0.312,-2.512 -1.039,-3.242 -0.797,-0.793 -2.058,-1.168 -3.746,-1.129" /></g></g></g></g><g
         id="g784"><g
           id="g786"><g
             clip-path="url(#clipPath792)"
             id="g788"><g
               id="g794"><path
                 id="path796"
                 style="fill:#1f4e86;fill-opacity:1;fill-rule:nonzero;stroke:none"
                 d="m 124.277,44.863 h 3.731 V 47 c -0.406,1.336 -1.258,1.984 -2.598,1.984 -0.039,0 -0.078,0 -0.121,0 -2.277,-0.207 -3.441,-1.867 -3.559,-5.062 0.118,-3.164 1.204,-4.805 3.313,-5.008 1.348,0 2.207,0.652 2.617,2 L 127.688,41 h 3.175 l -0.051,-0.16 c -0.867,-2.707 -2.808,-4.078 -5.777,-4.078 -4.055,0.215 -6.191,2.601 -6.347,7.093 0.156,4.614 2.351,7.04 6.531,7.215 2.957,0 4.855,-1.05 5.648,-3.121 l 0.012,-5.234 h -6.602 z" /></g></g></g></g><g
         id="g798"><g
           id="g800"><g
             clip-path="url(#clipPath806)"
             id="g802"><g
               id="g808"><path
                 id="path810"
                 style="fill:#1f4e86;fill-opacity:1;fill-rule:nonzero;stroke:none"
                 d="m 136.613,48.98 c -1.25,-0.039 -1.879,-1.031 -1.914,-3.039 0,-2.086 0.625,-3.105 1.906,-3.105 1.293,0.043 1.942,1.059 1.977,3.105 0,2.047 -0.644,3.039 -1.969,3.039 m 0.051,-8.355 c -3.207,0.129 -4.914,1.914 -5.07,5.324 0.156,3.223 1.844,4.946 5.023,5.121 3.207,-0.132 4.895,-1.855 5.012,-5.125 v -0.007 c -0.117,-3.438 -1.785,-5.227 -4.965,-5.313" /></g></g></g></g><g
         id="g812"><g
           id="g814"><g
             clip-path="url(#clipPath820)"
             id="g816"><g
               id="g822"><path
                 id="path824"
                 style="fill:#1f4e86;fill-opacity:1;fill-rule:nonzero;stroke:none"
                 d="m 148.793,44.996 -2.105,-0.57 c -0.778,-0.153 -1.153,-0.43 -1.122,-0.817 0.036,-0.48 0.395,-0.734 1.098,-0.769 0.766,0 1.242,0.281 1.457,0.867 l 0.027,0.082 h 2.993 l -0.047,-0.16 c -0.574,-1.996 -2.008,-3.008 -4.266,-3.008 -0.094,0 -0.187,0 -0.281,0.004 -2.59,0.043 -3.945,1.086 -4.027,3.105 0.039,1.317 0.773,2.231 2.191,2.711 0.617,0.168 1.285,0.321 1.988,0.446 1.16,0.238 1.715,0.617 1.645,1.136 -0.012,0.258 -0.102,0.454 -0.274,0.61 -0.355,0.312 -1.058,0.429 -2.097,0.347 -1.207,-0.078 -2.379,-0.601 -3.477,-1.55 l -0.207,-0.176 v 2.164 l 0.043,0.039 c 1.254,1.07 2.836,1.613 4.711,1.613 0.066,0 0.137,0 0.207,0 1.641,-0.027 2.809,-0.39 3.473,-1.078 0.461,-0.476 0.683,-1.117 0.668,-1.894 0.039,-1.578 -0.832,-2.621 -2.598,-3.102" /></g></g></g></g><g
         id="g826"><g
           id="g828"><g
             clip-path="url(#clipPath834)"
             id="g830"><g
               id="g836"><path
                 id="path838"
                 style="fill:#1f4e86;fill-opacity:1;fill-rule:nonzero;stroke:none"
                 d="m 158.289,48.355 c -0.437,0.434 -1.086,0.649 -1.922,0.625 h -0.863 v -6.144 h 0.922 c 1.758,0 2.613,0.976 2.613,2.98 0.02,1.168 -0.23,2.024 -0.75,2.539 m -1.215,-7.667 c -0.043,0 -0.082,0 -0.125,0 h -4.492 v 14.117 h 3.047 V 51.07 h 1.445 c 0.039,0 0.078,0 0.117,0 1.649,0 2.911,-0.422 3.743,-1.258 0.867,-0.867 1.296,-2.187 1.277,-3.933 0.019,-1.746 -0.41,-3.07 -1.277,-3.934 -0.832,-0.836 -2.09,-1.257 -3.735,-1.257" /></g></g></g></g><g
         id="g840"><g
           id="g842"><g
             clip-path="url(#clipPath848)"
             id="g844"><g
               id="g850"><path
                 id="path852"
                 style="fill:#1f4e86;fill-opacity:1;fill-rule:nonzero;stroke:none"
                 d="m 165.926,44.742 c 0.211,-1.281 0.851,-1.902 1.949,-1.902 1.285,0.039 1.953,0.66 2.027,1.902 z m 2.035,-4.054 c -0.066,0 -0.133,0 -0.203,0 -3.211,0.089 -4.875,1.898 -4.957,5.386 0.16,3.227 1.961,4.93 5.367,5.059 1.93,0 3.453,-0.59 4.52,-1.75 l 0.031,-0.039 v -2.395 l -0.215,0.239 c -1.133,1.234 -2.399,1.859 -3.746,1.859 -1.641,-0.082 -2.586,-0.785 -2.883,-2.156 h 6.961 v -0.125 c 0.043,-2.235 -0.445,-3.871 -1.449,-4.871 -0.805,-0.801 -1.957,-1.207 -3.426,-1.207" /></g></g></g></g><g
         id="g854"><g
           id="g856"><g
             clip-path="url(#clipPath862)"
             id="g858"><g
               id="g864"><path
                 id="path866"
                 style="fill:#1f4e86;fill-opacity:1;fill-rule:nonzero;stroke:none"
                 d="m 173.961,36.066 h 3.047 V 50.75 h -3.047 z" /></g></g></g></g><g
         id="g868"><g
           id="g870"><g
             clip-path="url(#clipPath876)"
             id="g872"><g
               id="g878"><path
                 id="path880"
                 style="fill:#1f4e86;fill-opacity:1;fill-rule:nonzero;stroke:none"
                 d="m 189.812,48.293 c -0.324,0.332 -0.847,0.5 -1.558,0.5 h -3.024 v -3.801 h 3.024 c 1.324,0 1.969,0.641 1.969,1.965 0.019,0.586 -0.121,1.035 -0.411,1.336 m -4.582,-9.191 h 2.614 c 1.25,0 1.855,0.539 1.855,1.652 0.02,0.558 -0.109,0.988 -0.379,1.266 -0.285,0.292 -0.742,0.441 -1.359,0.441 h -2.731 z m 5.754,4.484 c 1.246,-0.598 1.856,-1.656 1.821,-3.152 -0.043,-2.266 -1.453,-3.438 -4.203,-3.481 h -6.414 v 13.859 h 6.296 c 0.098,0.004 0.192,0.008 0.286,0.008 1.664,0 2.89,-0.39 3.64,-1.152 0.664,-0.676 0.973,-1.652 0.918,-2.91 -0.074,-1.551 -0.863,-2.613 -2.344,-3.172" /></g></g></g></g><g
         id="g882"><g
           id="g884"><g
             clip-path="url(#clipPath890)"
             id="g886"><g
               id="g892"><path
                 id="path894"
                 style="fill:#1f4e86;fill-opacity:1;fill-rule:nonzero;stroke:none"
                 d="m 198.949,48.98 c -1.254,-0.039 -1.879,-1.031 -1.918,-3.039 0,-2.086 0.625,-3.105 1.91,-3.105 1.293,0.043 1.938,1.059 1.977,3.105 0,2.047 -0.645,3.039 -1.969,3.039 M 199,40.625 c -3.207,0.129 -4.914,1.914 -5.07,5.324 0.156,3.223 1.843,4.946 5.019,5.121 3.207,-0.132 4.895,-1.855 5.016,-5.125 V 45.938 C 203.844,42.5 202.18,40.711 199,40.625" /></g></g></g></g><g
         id="g896"><g
           id="g898"><g
             clip-path="url(#clipPath904)"
             id="g900"><g
               id="g906"><path
                 id="path908"
                 style="fill:#1f4e86;fill-opacity:1;fill-rule:nonzero;stroke:none"
                 d="m 209.586,48.98 c -1.254,-0.039 -1.879,-1.031 -1.918,-3.039 0,-2.086 0.625,-3.105 1.91,-3.105 1.293,0.043 1.938,1.059 1.977,3.105 0,2.047 -0.649,3.039 -1.969,3.039 m 0.051,-8.355 c -3.207,0.129 -4.914,1.914 -5.075,5.324 0.161,3.223 1.844,4.946 5.024,5.121 3.207,-0.132 4.894,-1.855 5.016,-5.125 v -0.007 c -0.122,-3.438 -1.79,-5.227 -4.965,-5.313" /></g></g></g></g><g
         id="g910"><g
           id="g912"><g
             clip-path="url(#clipPath918)"
             id="g914"><g
               id="g920"><path
                 id="path922"
                 style="fill:#1f4e86;fill-opacity:1;fill-rule:nonzero;stroke:none"
                 d="m 225.75,40.816 h -3.898 l -3.254,3.598 v -8.348 h -2.989 V 50.75 h 2.989 v -2.477 l 1.308,-1.312 2.422,3.734 0.035,0.055 h 3.504 l -3.918,-5.934 z" /></g></g></g></g><g
         id="g924"><g
           id="g926"><g
             clip-path="url(#clipPath932)"
             id="g928"><g
               id="g934"><path
                 id="path936"
                 style="fill:#1f4e86;fill-opacity:1;fill-rule:nonzero;stroke:none"
                 d="m 237.453,42.84 c -0.351,0.359 -0.933,0.523 -1.73,0.508 h -2.555 v -4.246 h 2.559 c 0.035,0 0.074,0 0.109,0 0.66,0 1.164,0.168 1.496,0.5 0.375,0.375 0.555,0.968 0.539,1.789 0.031,0.64 -0.109,1.129 -0.418,1.449 m 3.52,-1.52 c 0,-2.898 -1.571,-4.367 -4.668,-4.367 h -6.125 v 13.863 h 2.988 v -5.257 h 1.555 l 3.496,5.257 h 3.508 l -3.747,-5.414 c 2.024,-0.32 3.032,-1.695 2.993,-4.082" /></g></g></g></g><g
         id="g938"><g
           id="g940"><g
             clip-path="url(#clipPath946)"
             id="g942"><g
               id="g948"><path
                 id="path950"
                 style="fill:#1f4e86;fill-opacity:1;fill-rule:nonzero;stroke:none"
                 d="m 246.711,48.98 c -1.25,-0.039 -1.879,-1.031 -1.914,-3.039 0,-2.086 0.625,-3.105 1.906,-3.105 1.293,0.043 1.938,1.059 1.977,3.105 0,2.047 -0.645,3.039 -1.969,3.039 m 0.051,-8.355 c -3.207,0.129 -4.914,1.914 -5.071,5.324 0.157,3.223 1.844,4.946 5.024,5.121 3.207,-0.132 4.894,-1.855 5.012,-5.125 v -0.007 c -0.118,-3.438 -1.786,-5.227 -4.965,-5.313" /></g></g></g></g><g
         id="g952"><g
           id="g954"><g
             clip-path="url(#clipPath960)"
             id="g956"><g
               id="g962"><path
                 id="path964"
                 style="fill:#1f4e86;fill-opacity:1;fill-rule:nonzero;stroke:none"
                 d="m 257.348,48.98 c -1.254,-0.039 -1.879,-1.031 -1.918,-3.039 0,-2.086 0.629,-3.105 1.91,-3.105 1.293,0.043 1.937,1.059 1.976,3.105 0,2.047 -0.644,3.039 -1.968,3.039 m 0.05,-8.355 c -3.207,0.129 -4.914,1.914 -5.07,5.324 0.156,3.223 1.844,4.946 5.02,5.121 3.211,-0.132 4.894,-1.855 5.015,-5.125 v -0.007 c -0.121,-3.438 -1.789,-5.227 -4.965,-5.313" /></g></g></g></g><g
         id="g966"><g
           id="g968"><g
             clip-path="url(#clipPath974)"
             id="g970"><g
               id="g976"><path
                 id="path978"
                 style="fill:#1f4e86;fill-opacity:1;fill-rule:nonzero;stroke:none"
                 d="m 277.199,41.562 c -0.625,-0.621 -1.582,-0.917 -2.871,-0.874 h -11.016 v 10.128 h 2.989 v -7.98 h 1.328 c 1.055,0 1.566,0.539 1.566,1.648 v 6.332 h 2.985 v -7.98 h 1.16 c 1.133,0 1.699,0.582 1.738,1.777 v 6.203 h 2.988 v -6.453 c 0.039,-1.246 -0.254,-2.187 -0.867,-2.801" /></g></g></g></g></g></g></svg>